# xmcd
#
# Track frame offsets: 
#        150
#        14402
#        35599
#        47448
#        60193
#        73713
#        84843
#        97660
#        112582
#        128921
#        139534
#        154009
#        165641
#        175414
#        192553
#
# Disc length: 2742 seconds
#
# Revision: 1
# Processed by: cddbd v1.5.2PL0 Copyright (c) Steve Scherf et al.
# Submitted via: ExactAudioCopy v0.95b4
#
DISCID=b20ab40f
DTITLE=Southern Culture on the Skids - Countrypolitan Favorites
DYEAR=2007
DGENRE=Country
TTITLE0=Oh Lonesome Me
TTITLE1=Muswell Hillbilly
TTITLE2=Funnel of Love
TTITLE3=Wolverton Mountain
TTITLE4=Rose Garden
TTITLE5=Let's Invite Them Over
TTITLE6=Life's a Gas
TTITLE7=Te Ni Nee Ni Nu
TTITLE8=Tombstone Shadow
TTITLE9=Have You Seen Her Face
TTITLE10=No Longer a Sweetheart of Mine
TTITLE11=Engine Engine #9
TTITLE12=Fight Fire
TTITLE13=Tobacco Road
TTITLE14=Happy Jack
EXTD=Rick Miller: vocals, banjo, guitar, percussion\nMary Huff: vocals
EXTD=, bass, Moog synthesizer, keyboards, percussion\nDave Hartman: dr
EXTD=ums, percussion, backing vocals\nRichard Putnam: keyboards (track
EXTD=s 4,8,11,12]\nJack Miller: laughs (15]\nRecorded and mixed by Ric
EXTD=k Miller and Mark Williams at the Kudzu Ranch, Mebane US-NC.\nMaste
EXTD=red by Dave Harris at Studio B, Charlotte US-NC.\nProduced by Ric
EXTD=k Miller.\nCD: Yep Roc YEP 2124 (2007-02-20), UPC 634457212428.
EXTT0=(Don Gibson)
EXTT1=(Ray Davies)
EXTT2=(Charlie McCoy/Kent Westberry)
EXTT3=(Merle Kilgore/Claude King)
EXTT4=(Joe South)
EXTT5=(Onie Wheeler)
EXTT6=(Marc Bolan)
EXTT7=(James Moore [Slim Harpo])
EXTT8=(John Fogerty)
EXTT9=(Chris Hillman)
EXTT10=(Don Reno/Red Smiley/Fred Swift)
EXTT11=(Roger Miller)
EXTT12=(John Fogerty/Tom Fogerty)
EXTT13=(John D. Loudermilk)
EXTT14=(Pete Townshend)
PLAYORDER=
